PathFileType	4	(X/Y/Z)	C:\Users\Basilio\Documents\Thesis Gigler\squatting_fais\c3dfiles\054\SLS_back_pre4\markers_experimental.trc
DataRate	CameraRate	NumFrames	NumMarkers	Units	OrigDataRate	OrigDataStartFrame	OrigNumFrames
200.000000	200.000000	4	61	mm	200.000000	1343	1535
Frame#	Time	FHD			LBHD			RBHD			C7			T10			CLAV			LSHO			LUUPA			LMUPA			LDUPA			LLEP			LMEP			LRAD			LUL			LRFIN			RSHO			RUPA1			RMUPA			RDUPA			RLEP			RMEP			RRAD			RUL			RUFIN			LASI			RASI			USACR			LSACR			RSACR			LTHI1			LTHI2			LTHI3			LTHI4			LLFC			LMFC			LTIB1			LTIB2			LTIB3			LTIB4			LLMAL			LMMAL			LHEE			LMT1			LMT2			LMT5			RTHI			RTHI2			RTHI3			RTHI4			RLFC			RMFC			RTIB1			RTIB2			RTIB3			RTIB4			RLMAL			RMMAL			RHEE			RMT1			RMT2			RMT5			
		X1	Y1	Z1	X2	Y2	Z2	X3	Y3	Z3	X4	Y4	Z4	X5	Y5	Z5	X6	Y6	Z6	X7	Y7	Z7	X8	Y8	Z8	X9	Y9	Z9	X10	Y10	Z10	X11	Y11	Z11	X12	Y12	Z12	X13	Y13	Z13	X14	Y14	Z14	X15	Y15	Z15	X16	Y16	Z16	X17	Y17	Z17	X18	Y18	Z18	X19	Y19	Z19	X20	Y20	Z20	X21	Y21	Z21	X22	Y22	Z22	X23	Y23	Z23	X24	Y24	Z24	X25	Y25	Z25	X26	Y26	Z26	X27	Y27	Z27	X28	Y28	Z28	X29	Y29	Z29	X30	Y30	Z30	X31	Y31	Z31	X32	Y32	Z32	X33	Y33	Z33	X34	Y34	Z34	X35	Y35	Z35	X36	Y36	Z36	X37	Y37	Z37	X38	Y38	Z38	X39	Y39	Z39	X40	Y40	Z40	X41	Y41	Z41	X42	Y42	Z42	X43	Y43	Z43	X44	Y44	Z44	X45	Y45	Z45	X46	Y46	Z46	X47	Y47	Z47	X48	Y48	Z48	X49	Y49	Z49	X50	Y50	Z50	X51	Y51	Z51	X52	Y52	Z52	X53	Y53	Z53	X54	Y54	Z54	X55	Y55	Z55	X56	Y56	Z56	X57	Y57	Z57	X58	Y58	Z58	X59	Y59	Z59	X60	Y60	Z60	X61	Y61	Z61	

1344	6.715	-165.9860229492188	1784.197509765625	-870.4573974609377	-336.1519470214844	1737.348510742188	-929.7152099609377	-341.8930358886719	1738.069213867188	-789.3303833007815	-382.3157348632813	1561.35107421875	-842.0179443359377	-396.6827392578126	1231.20361328125	-836.6274414062502	-235.2452239990235	1512.805053710938	-861.3923339843752	-318.7556152343751	1562.692138671875	-1005.065246582031	-170.6608428955078	1438.326904296875	-1129.603637695313	-136.2993316650391	1471.94384765625	-1118.015380859375	-102.0585021972657	1428.385375976563	-1141.6123046875	-43.61820602416993	1430.87353515625	-1139.9462890625	-44.46601104736329	1365.87548828125	-1094.149169921875	207.2539367675782	1454.228881835938	-1039.625610351563	228.0428161621094	1422.625366210938	-1107.783935546875	300.8178710937501	1473.44921875	-1051.249267578125	-284.4838867187501	1565.186157226563	-705.1572265625001	-127.5742263793946	1435.292724609375	-588.0985107421876	-91.31626892089845	1464.703369140625	-600.4123535156251	-60.16305160522462	1415.254028320313	-581.6315307617189	-14.58212089538575	1407.1328125	-586.0011596679689	-22.65833282470703	1353.88671875	-641.9458007812501	212.4748687744141	1496.039672851563	-737.8239135742189	236.0216064453126	1462.6591796875	-670.3723754882814	285.1130981445313	1538.069213867188	-737.7544555664064	-223.7913055419922	1063.8505859375	-983.8568115234377	-188.47314453125	1066.848999023438	-730.0997924804689	-394.509490966797	1146.012451171875	-833.3005981445315	-403.489227294922	1113.316040039063	-859.803161621094	-393.7432861328126	1113.661865234375	-803.828552246094	-325.9436950683594	830.2248535156252	-1069.620239257813	-294.0968933105469	750.9925537109376	-1079.400024414063	-246.6558685302735	754.1998291015626	-1077.600219726563	-321.5446472167969	697.2732543945314	-1063.880737304688	-317.3107604980469	544.6625976562501	-1059.252807617188	-271.5705871582032	524.0691528320314	-928.1064453125002	-273.9577636718751	375.3141479492188	-1030.388671875	-329.4842834472657	338.2248229980469	-1090.603637695313	-289.4418945312501	331.4046630859376	-1067.169799804688	-295.2478942871094	250.3121795654297	-1042.496948242188	-357.6701660156251	116.595947265625	-1093.583618164063	-325.7836608886719	131.2959594726563	-1001.905090332031	-427.8059997558595	103.8163757324219	-1039.596313476563	-216.2813720703126	56.47401428222658	-1019.354553222656	-208.0935516357422	56.06042861938478	-1068.683959960938	-260.9610290527344	41.0462875366211	-1119.943481445313	-301.5778808593751	765.5201416015626	-649.1903686523439	-271.4247741699219	707.1274414062501	-652.6486816406251	-238.2882843017579	704.6137084960939	-656.3212280273439	-307.8693847656251	634.0533447265626	-670.6703491210939	-331.2246093750001	540.8889770507814	-676.4850463867189	-272.8375854492188	540.5047607421876	-804.4599609375002	-282.2342224121094	430.4203186035157	-679.8629150390626	-357.5082702636719	360.3988342285157	-651.2811279296876	-311.9876098632813	351.3234558105469	-657.5635986328126	-297.3375854492188	300.3477172851563	-680.7045288085939	-365.2330932617188	124.9004745483399	-665.5870361328126	-315.2977600097657	138.3409118652344	-745.3491821289064	-420.5801391601564	101.8205337524414	-732.5079345703126	-201.0835571289063	53.70791244506837	-719.6263427734376	-206.2286224365235	51.78474426269533	-672.1212158203126	-262.0035705566407	36.97774505615235	-630.8441162109376	
1345	6.72	-166.5119018554688	1784.10400390625	-869.7535400390627	-336.6837463378907	1737.344116210938	-928.823669433594	-342.2328186035157	1737.999633789063	-788.314147949219	-382.5823059082032	1561.164916992188	-841.089538574219	-396.4539794921876	1230.9853515625	-835.9364013671877	-235.4293365478516	1512.835205078125	-860.5330200195315	-319.2635192871094	1562.582153320313	-1004.24365234375	-170.9462585449219	1438.042724609375	-1128.76416015625	-136.7099609375	1472.205688476563	-1117.369873046875	-102.3649520874024	1428.116088867188	-1140.70068359375	-44.01181030273438	1430.63427734375	-1139.144165039063	-44.78840255737305	1365.579345703125	-1093.251220703125	206.7251129150391	1454.12548828125	-1038.697875976563	227.7980041503907	1422.439086914063	-1106.908935546875	300.2697143554688	1473.414916992188	-1050.297973632813	-284.6345825195313	1564.9951171875	-704.2437744140626	-127.7555618286133	1435.111572265625	-587.2557373046876	-91.53206634521486	1464.480224609375	-599.4881591796876	-60.34642410278322	1415.015625	-580.7757568359376	-14.59906768798828	1407.092529296875	-585.2344360351564	-22.77063369750977	1353.738037109375	-641.2261962890626	212.2491912841797	1496.063720703125	-736.9466552734376	236.0025787353516	1462.650512695313	-669.5949096679689	285.0903930664063	1538.079223632813	-736.9230346679689	-222.9479522705079	1063.732299804688	-983.1565551757815	-187.8320770263672	1066.831420898438	-729.6005249023439	-394.1838684082032	1145.888793945313	-832.3974609375002	-403.0288391113282	1113.240966796875	-859.2473144531252	-393.4089660644532	1113.5927734375	-803.146667480469	-325.7936401367188	830.3427734375002	-1069.05126953125	-293.9411315917969	751.0520019531251	-1078.939819335938	-246.9006347656251	754.4372558593751	-1077.328491210938	-321.5544128417969	697.3647460937501	-1063.399169921875	-317.3043823242188	544.6726074218751	-1058.860229492188	-271.4135437011719	523.9288330078126	-927.8934326171877	-273.9207458496094	375.3667602539063	-1030.244750976563	-329.5320739746094	338.3184509277344	-1090.359375	-289.4362487792969	331.4799804687501	-1067.051147460938	-295.2936706542969	250.3407592773438	-1042.43212890625	-357.6026611328126	116.6459274291992	-1093.550415039063	-325.7949218750001	131.2988891601563	-1001.907897949219	-427.7839660644532	103.8391647338867	-1039.579345703125	-215.9176177978516	56.48307037353517	-1019.262329101563	-208.0762939453126	56.01792526245119	-1068.7099609375	-260.7019653320313	41.00327301025391	-1119.898315429688	-301.4487304687501	765.5109252929689	-648.8254394531251	-271.4076232910157	707.0899047851564	-652.3433837890626	-238.2779541015626	704.5242309570314	-656.0728149414064	-308.0704956054688	634.1281127929689	-670.2556152343751	-331.5190429687501	540.9496459960939	-676.2828369140626	-275.9090270996094	540.4660644531251	-803.2183837890627	-282.4572448730469	430.4902343750001	-679.7698974609376	-357.7057800292969	360.4231872558594	-651.2309570312501	-312.1423034667969	351.3392333984376	-657.4453125000001	-297.5065002441407	300.4145812988282	-680.6676635742189	-365.2214965820313	124.8896560668946	-665.5840454101564	-315.3508300781251	138.3411712646485	-745.4056396484376	-420.5440368652345	101.8114395141602	-732.5330810546876	-201.0956420898438	53.68168258666994	-719.6414794921876	-206.2297668457032	51.78258132934572	-672.1277465820314	-261.9971618652344	36.98361587524415	-630.8362426757814	
1346	6.725000000000001	-166.9862213134766	1783.9775390625	-868.868347167969	-337.1991271972657	1737.252319335938	-927.7353515625002	-342.7196655273438	1737.887939453125	-787.2537841796877	-382.7717285156251	1560.952880859375	-840.008239746094	-396.2214660644532	1230.699951171875	-835.1201171875002	-235.7220916748047	1512.803588867188	-859.655944824219	-319.3992614746094	1562.384521484375	-1003.502075195313	-171.3099212646485	1437.93994140625	-1127.896850585938	-136.9895324707032	1472.053955078125	-1116.505615234375	-102.6004257202149	1427.6201171875	-1139.600830078125	-44.36828613281251	1430.3779296875	-1138.292358398438	-45.07344436645509	1365.355224609375	-1092.586059570313	206.3515167236329	1454.012329101563	-1037.902221679688	227.5516815185547	1422.318725585938	-1106.090087890625	299.9447326660157	1473.359497070313	-1049.425170898438	-284.9403076171876	1564.895874023438	-703.2168579101564	-127.7493667602539	1435.052490234375	-586.4199218750001	-91.66706848144533	1464.318725585938	-598.7756347656251	-60.34413909912111	1414.873779296875	-579.9951171875001	-14.68704891204834	1406.990478515625	-584.3681030273439	-22.86824417114258	1353.6328125	-640.4280395507814	212.3323516845704	1496.035522460938	-736.2520141601564	235.9919891357422	1462.58740234375	-668.8433837890626	284.9740600585938	1537.9873046875	-736.1318969726564	-222.5755310058594	1063.72998046875	-982.322448730469	-187.4498748779297	1066.838623046875	-728.9284667968751	-393.7184143066407	1145.7412109375	-831.8543090820315	-402.5341186523439	1113.062133789063	-858.3786621093752	-392.9641418457032	1113.504272460938	-802.2129516601565	-325.7910461425782	830.620544433594	-1068.606811523438	-293.8982238769532	751.1465454101564	-1078.362915039063	-246.4267578125001	754.2658691406251	-1076.854614257813	-321.5470886230469	697.4901733398439	-1062.978393554688	-317.3247985839844	544.7170410156251	-1058.454345703125	-271.2974243164063	523.9091186523439	-927.705505371094	-273.9596557617188	375.4400329589844	-1030.136840820313	-329.5246276855469	338.4485778808594	-1090.13134765625	-289.4444274902344	331.5174560546876	-1066.890380859375	-295.1690673828126	250.4160766601563	-1042.361938476563	-357.5802917480469	116.7022933959961	-1093.510986328125	-325.7276611328126	131.3166046142578	-1001.865966796875	-427.5427856445314	103.671989440918	-1039.629150390625	-216.2590637207032	56.44186782836915	-1019.353271484375	-208.0845794677735	56.0440139770508	-1068.714233398438	-260.7059936523438	40.99771881103516	-1119.893188476563	-301.2501220703126	765.4406738281251	-648.4216308593751	-271.4849853515626	706.8607788085939	-651.9613037109376	-238.3716125488282	704.3655395507814	-655.8640136718751	-308.2015075683594	634.1382446289064	-670.2945556640626	-331.9035949707032	540.9667358398439	-676.0684814453126	-275.0099487304688	540.5363769531251	-803.469909667969	-282.7246398925782	430.4991455078126	-679.7162475585939	-357.9241333007813	360.2867736816407	-651.0991210937501	-312.3718872070313	351.3104858398438	-657.3679809570314	-297.6885070800782	300.4302673339844	-680.5791015625001	-365.2255859375001	124.8935623168946	-665.5932617187501	-315.3760681152344	138.3223266601563	-745.4149780273439	-420.7335510253907	101.8143310546875	-732.5457763671876	-201.0936279296876	53.70998382568361	-719.6434936523439	-206.2259063720704	51.78816223144533	-672.1539306640626	-262.0009765625001	36.99369812011719	-630.8616943359376	
1347	6.73	-167.504135131836	1783.977783203125	-867.8447265625002	-337.5645751953126	1737.24658203125	-926.881042480469	-342.9407653808594	1737.805419921875	-786.3850097656252	-383.1173400878907	1560.775024414063	-839.2478637695315	-396.0086059570314	1230.592163085938	-834.3769531250002	-235.9927368164063	1512.710693359375	-858.718688964844	-319.7273864746094	1562.17578125	-1002.504516601563	-171.5104370117188	1437.544677734375	-1126.808715820313	-137.274658203125	1471.772705078125	-1115.777954101563	-103.1751480102539	1427.753540039063	-1139.206665039063	-44.72411346435548	1430.1875	-1137.498413085938	-45.24471664428712	1364.922607421875	-1091.144897460938	205.9206542968751	1453.996948242188	-1037.050537109375	227.1859741210938	1422.239990234375	-1105.173828125	299.7793273925782	1473.318481445313	-1048.553466796875	-285.0733337402344	1564.770263671875	-702.3552246093751	-127.6490859985352	1434.865600585938	-585.6865234375001	-91.59898376464845	1464.233520507813	-598.0229492187501	-60.4795379638672	1414.714965820313	-579.1887207031251	-14.74179553985596	1406.817749023438	-583.6008300781251	-22.9106502532959	1353.537231445313	-639.6899414062501	212.2117614746094	1495.93310546875	-735.3892822265626	235.8409423828126	1462.518432617188	-667.9888916015626	284.9235229492188	1537.989135742188	-735.3513793945314	-222.2344207763672	1063.6728515625	-981.6231689453127	-187.1078491210938	1066.817016601563	-728.2312622070314	-393.4988403320314	1145.715698242188	-831.0664672851565	-402.0870056152345	1112.990356445313	-857.709899902344	-392.6566162109376	1113.424194335938	-801.6118164062502	-324.8804321289063	830.4848632812502	-1068.201782226563	-293.7739868164063	751.1876220703126	-1077.876708984375	-246.2810668945313	754.3603515625001	-1076.41162109375	-321.4401855468751	697.6127319335939	-1062.464111328125	-317.2828063964844	544.7302246093751	-1058.080932617188	-271.1079101562501	523.8255004882814	-927.447937011719	-273.9151000976563	375.4914550781251	-1029.960083007813	-329.5315246582032	338.5614624023438	-1089.93603515625	-289.4549560546876	331.5642089843751	-1066.774780273438	-295.3265380859376	250.5676727294922	-1042.265380859375	-357.5735778808594	116.7761535644532	-1093.472778320313	-325.7089538574219	131.329574584961	-1001.863220214844	-427.5253906250001	103.7089080810547	-1039.6064453125	-216.0912017822266	56.5108985900879	-1019.358947753906	-208.0584564208985	56.0201873779297	-1068.723754882813	-260.7242126464844	41.00871658325196	-1119.892578125	-301.0806884765626	765.4065551757814	-648.0930175781251	-271.4513549804688	706.8229980468751	-651.6854248046876	-238.3313446044922	704.2613525390626	-655.6605224609376	-308.2713012695313	634.1094360351564	-670.1091308593751	-332.1692810058594	540.9546508789064	-675.9135131835939	-275.4048767089844	540.5345458984376	-803.4075927734377	-282.9657897949219	430.5467224121095	-679.6277465820314	-358.1791076660157	360.2957153320313	-651.0466918945314	-312.6172790527344	351.3191223144532	-657.3142089843751	-297.8999938964844	300.3709716796876	-680.5405883789064	-365.2455139160157	124.8322525024414	-665.6205444335939	-315.4486694335938	138.2922973632813	-745.4719238281251	-420.567108154297	101.7338485717774	-732.5859375000001	-201.1064758300782	53.69062805175783	-719.6883544921876	-206.227767944336	51.78907012939455	-672.1544799804689	-262.0029907226563	37.0260124206543	-630.8590087890626	
